<svg width="242" height="227" viewBox="0 0 242 227" fill="none" xmlns="http://www.w3.org/2000/svg">
<g filter="url(#filter0_d_6_12)">
<circle cx="121.633" cy="110.5" r="89.5" fill="url(#paint0_linear_6_12)"/>
</g>
<circle cx="113.633" cy="103.5" r="67.5" fill="white"/>
<path d="M55.8676 115.231C54.1956 115.231 52.6996 114.956 51.3796 114.406C50.0816 113.834 49.0476 113.064 48.2776 112.096C47.5296 111.106 47.1116 109.995 47.0236 108.763L53.2936 108.763C53.3816 109.357 53.6566 109.819 54.1186 110.149C54.5806 110.479 55.1526 110.644 55.8346 110.644C56.3626 110.644 56.7806 110.534 57.0886 110.314C57.3966 110.094 57.5506 109.808 57.5506 109.456C57.5506 108.994 57.2976 108.653 56.7916 108.433C56.2856 108.213 55.4496 107.971 54.2836 107.707C52.9636 107.443 51.8636 107.146 50.9836 106.816C50.1036 106.486 49.3336 105.947 48.6736 105.199C48.0356 104.451 47.7166 103.439 47.7166 102.163C47.7166 101.063 48.0136 100.073 48.6076 99.193C49.2016 98.291 50.0706 97.576 51.2146 97.048C52.3806 96.52 53.7776 96.256 55.4056 96.256C57.8256 96.256 59.7286 96.85 61.1146 98.038C62.5006 99.226 63.3036 100.788 63.5236 102.724L57.6826 102.724C57.5726 102.13 57.3086 101.679 56.8906 101.371C56.4946 101.041 55.9556 100.876 55.2736 100.876C54.7456 100.876 54.3386 100.975 54.0526 101.173C53.7886 101.371 53.6566 101.646 53.6566 101.998C53.6566 102.438 53.9096 102.779 54.4156 103.021C54.9216 103.241 55.7356 103.472 56.8576 103.714C58.1996 104 59.3106 104.319 60.1906 104.671C61.0926 105.023 61.8736 105.595 62.5336 106.387C63.2156 107.157 63.5566 108.213 63.5566 109.555C63.5566 110.633 63.2376 111.601 62.5996 112.459C61.9836 113.317 61.0926 113.999 59.9266 114.505C58.7826 114.989 57.4296 115.231 55.8676 115.231ZM66.3405 105.727C66.3405 103.813 66.6815 102.141 67.3635 100.711C68.0675 99.281 69.0135 98.181 70.2015 97.411C71.4115 96.641 72.7535 96.256 74.2275 96.256C75.5035 96.256 76.6035 96.509 77.5275 97.015C78.4515 97.521 79.1665 98.203 79.6725 99.061L79.6725 96.487L86.1405 96.487L86.1405 115L79.6725 115L79.6725 112.426C79.1665 113.284 78.4405 113.966 77.4945 114.472C76.5705 114.978 75.4815 115.231 74.2275 115.231C72.7535 115.231 71.4115 114.846 70.2015 114.076C69.0135 113.306 68.0675 112.206 67.3635 110.776C66.6815 109.324 66.3405 107.641 66.3405 105.727ZM79.6725 105.727C79.6725 104.539 79.3425 103.604 78.6825 102.922C78.0445 102.24 77.2525 101.899 76.3065 101.899C75.3385 101.899 74.5355 102.24 73.8975 102.922C73.2595 103.582 72.9405 104.517 72.9405 105.727C72.9405 106.915 73.2595 107.861 73.8975 108.565C74.5355 109.247 75.3385 109.588 76.3065 109.588C77.2525 109.588 78.0445 109.247 78.6825 108.565C79.3425 107.883 79.6725 106.937 79.6725 105.727ZM96.9542 99.754C97.6802 98.698 98.5602 97.862 99.5942 97.246C100.628 96.63 101.739 96.322 102.927 96.322L102.927 103.219L101.112 103.219C99.7042 103.219 98.6592 103.494 97.9772 104.044C97.2952 104.594 96.9542 105.551 96.9542 106.915L96.9542 115L90.4862 115L90.4862 96.487L96.9542 96.487L96.9542 99.754ZM116.829 109.489L116.829 115L114.024 115C109.294 115 106.929 112.657 106.929 107.971L106.929 101.866L104.652 101.866L104.652 96.487L106.929 96.487L106.929 91.999L113.43 91.999L113.43 96.487L116.796 96.487L116.796 101.866L113.43 101.866L113.43 108.07C113.43 108.576 113.54 108.939 113.76 109.159C114.002 109.379 114.398 109.489 114.948 109.489L116.829 109.489ZM132.633 96.322C134.745 96.322 136.417 97.037 137.649 98.467C138.903 99.875 139.53 101.789 139.53 104.209L139.53 115L133.062 115L133.062 105.067C133.062 104.011 132.787 103.186 132.237 102.592C131.687 101.976 130.95 101.668 130.026 101.668C129.058 101.668 128.299 101.976 127.749 102.592C127.199 103.186 126.924 104.011 126.924 105.067L126.924 115L120.456 115L120.456 90.58L126.924 90.58L126.924 99.127C127.496 98.291 128.266 97.62 129.234 97.114C130.224 96.586 131.357 96.322 132.633 96.322ZM142.683 105.727C142.683 103.813 143.024 102.141 143.706 100.711C144.41 99.281 145.356 98.181 146.544 97.411C147.754 96.641 149.096 96.256 150.57 96.256C151.846 96.256 152.946 96.509 153.87 97.015C154.794 97.521 155.509 98.203 156.015 99.061L156.015 96.487L162.483 96.487L162.483 115L156.015 115L156.015 112.426C155.509 113.284 154.783 113.966 153.837 114.472C152.913 114.978 151.824 115.231 150.57 115.231C149.096 115.231 147.754 114.846 146.544 114.076C145.356 113.306 144.41 112.206 143.706 110.776C143.024 109.324 142.683 107.641 142.683 105.727ZM156.015 105.727C156.015 104.539 155.685 103.604 155.025 102.922C154.387 102.24 153.595 101.899 152.649 101.899C151.681 101.899 150.878 102.24 150.24 102.922C149.602 103.582 149.283 104.517 149.283 105.727C149.283 106.915 149.602 107.861 150.24 108.565C150.878 109.247 151.681 109.588 152.649 109.588C153.595 109.588 154.387 109.247 155.025 108.565C155.685 107.883 156.015 106.937 156.015 105.727ZM178.411 115L173.296 107.41L173.296 115L166.828 115L166.828 90.58L173.296 90.58L173.296 103.747L178.411 96.487L186.166 96.487L178.873 105.793L186.298 115L178.411 115Z" fill="#422E11"/>
<defs>
<filter id="filter0_d_6_12" x="28.1326" y="21" width="187" height="187" filterUnits="userSpaceOnUse" color-interpolation-filters="sRGB">
<feFlood flood-opacity="0" result="BackgroundImageFix"/>
<feColorMatrix in="SourceAlpha" type="matrix" values="0 0 0 0 0 0 0 0 0 0 0 0 0 0 0 0 0 0 127 0" result="hardAlpha"/>
<feOffset dy="4"/>
<feGaussianBlur stdDeviation="2"/>
<feComposite in2="hardAlpha" operator="out"/>
<feColorMatrix type="matrix" values="0 0 0 0 0 0 0 0 0 0 0 0 0 0 0 0 0 0 0.24 0"/>
<feBlend mode="normal" in2="BackgroundImageFix" result="effect1_dropShadow_6_12"/>
<feBlend mode="normal" in="SourceGraphic" in2="effect1_dropShadow_6_12" result="shape"/>
</filter>
<linearGradient id="paint0_linear_6_12" x1="72" y1="110.5" x2="162" y2="152" gradientUnits="userSpaceOnUse">
<stop stop-color="#FFDCA8"/>
<stop offset="1" stop-color="#CD3D00"/>
</linearGradient>
</defs>
</svg>
